<svg xmlns="http://www.w3.org/2000/svg" aria-hidden="true" style="position:absolute;width:0;height:0;overflow:hidden">
  <defs>
    <symbol id="icon-exclamation-mark" viewBox="0 0 9 32">
       <path fill="#9be1a0" style="fill: var(--color1, #9be1a0)" d="M1.838 18.545c0.121 1.266 0.328 2.206 0.611 2.827 0.287 0.618 0.796 0.927 1.532 0.927 0.138 0 0.261-0.022 0.383-0.047 0.125 0.025 0.247 0.047 0.386 0.047 0.734 0 1.244-0.308 1.53-0.927 0.285-0.62 0.487-1.561 0.612-2.827l0.653-9.771c0.122-1.905 0.184-3.271 0.184-4.101 0-1.129-0.295-2.010-0.886-2.643-0.593-0.632-1.372-0.948-2.337-0.948-0.051 0-0.090 0.012-0.141 0.014-0.048-0.002-0.088-0.014-0.138-0.014-0.967 0-1.744 0.316-2.337 0.948s-0.888 1.515-0.888 2.643c0 0.83 0.060 2.196 0.184 4.101l0.651 9.77zM4.389 25.87c-0.937 0-1.733 0.295-2.394 0.886s-0.992 1.31-0.992 2.153c0 0.951 0.335 1.701 1 2.244 0.668 0.544 1.447 0.816 2.337 0.816 0.907 0 1.697-0.268 2.373-0.806 0.675-0.536 1.013-1.289 1.013-2.254 0-0.843-0.323-1.561-0.969-2.153s-1.436-0.887-2.37-0.887z"></path>
    </symbol>
    <symbol id="icon-radio" viewBox="0 0 32 32">
      <path fill="#fff" style="fill: var(--color2, #fff); stroke: var(--color1, #9be1a0)" stroke="#9be1a0" stroke-linejoin="miter" stroke-linecap="butt" stroke-miterlimit="4" stroke-width="2.4" d="M30.8 16c0 8.174-6.626 14.8-14.8 14.8s-14.8-6.626-14.8-14.8c0-8.174 6.626-14.8 14.8-14.8s14.8 6.626 14.8 14.8z"></path>
    </symbol>
    <symbol id="icon-radio-active" viewBox="0 0 32 32">
      <path fill="#fff" style="fill: var(--color2, #fff); stroke: var(--color1, #9be1a0)" stroke="#9be1a0" stroke-linejoin="miter" stroke-linecap="butt" stroke-miterlimit="4" stroke-width="2.4" d="M30.8 16c0 8.174-6.626 14.8-14.8 14.8s-14.8-6.626-14.8-14.8c0-8.174 6.626-14.8 14.8-14.8s14.8 6.626 14.8 14.8z"></path>
      <path fill="#9be1a0" style="fill: var(--color1, #9be1a0)" d="M22.856 16c0 3.787-3.070 6.857-6.857 6.857s-6.857-3.070-6.857-6.857c0-3.787 3.070-6.857 6.857-6.857s6.857 3.070 6.857 6.857z"></path>
    </symbol>
  </defs>
</svg>  



